<?xml version="1.0" standalone="no"?>
<!DOCTYPE svg PUBLIC "-//W3C//DTD SVG 20010904//EN"
 "http://www.w3.org/TR/2001/REC-SVG-20010904/DTD/svg10.dtd">
<svg version="1.0" xmlns="http://www.w3.org/2000/svg"
 width="800.000000pt" height="800.000000pt" viewBox="0 0 800.000000 800.000000"
 preserveAspectRatio="xMidYMid meet">

<g transform="translate(0.000000,800.000000) scale(0.100000,-0.100000)"
fill="#000000" stroke="none">
<path d="M5270 7889 c-93 -11 -192 -41 -247 -74 -56 -34 -70 -82 -85 -285 -10
-137 -9 -173 8 -310 20 -165 21 -271 1 -385 -12 -67 -13 -71 -52 -90 -33 -16
-57 -20 -131 -18 l-91 3 -59 -41 -58 -41 -46 16 c-75 27 -115 21 -189 -26 -59
-39 -70 -43 -135 -44 -82 -3 -163 -29 -226 -75 -30 -22 -88 -43 -218 -79 -486
-134 -1188 -388 -1496 -542 -385 -193 -888 -489 -1046 -617 -375 -302 -674
-715 -798 -1101 -59 -184 -83 -382 -53 -437 19 -36 45 -27 107 38 177 184 651
554 866 675 46 26 131 75 189 110 59 35 111 64 117 64 20 0 103 -105 141 -180
74 -141 121 -324 156 -600 27 -214 62 -329 139 -460 133 -226 380 -390 686
-454 41 -9 149 -21 240 -26 282 -17 407 -29 488 -46 236 -49 386 -141 546
-339 48 -59 103 -114 133 -134 l52 -34 -16 -36 c-34 -81 -63 -176 -83 -280
-19 -97 -22 -163 -29 -590 l-9 -480 -31 -67 c-17 -36 -38 -94 -47 -128 -9 -33
-37 -97 -64 -141 -60 -100 -80 -159 -80 -237 0 -90 27 -140 102 -189 118 -76
281 -109 443 -90 157 18 196 30 234 68 l34 34 -6 87 c-2 48 -17 134 -32 191
-21 85 -25 118 -20 175 4 47 1 88 -8 121 -12 43 -11 55 1 84 8 22 17 99 22
205 5 94 15 194 23 221 22 74 114 289 158 371 88 160 129 330 129 534 l0 106
39 52 c24 32 44 72 51 105 11 48 17 55 72 92 74 50 192 172 251 260 25 36 47
63 50 58 17 -29 87 -303 87 -344 0 -48 -1 -50 -94 -141 -69 -69 -100 -109
-122 -155 -25 -54 -33 -63 -54 -61 -75 5 -86 -25 -77 -191 8 -145 32 -267 73
-386 19 -55 49 -138 65 -185 93 -264 92 -425 -5 -708 -52 -150 -46 -234 23
-303 69 -69 209 -89 621 -89 193 0 301 -5 445 -21 317 -35 480 -16 563 67 25
25 32 41 32 69 0 55 -45 92 -166 139 -251 98 -368 156 -524 259 -41 27 -100
66 -130 86 -32 21 -57 46 -61 61 -4 14 -7 135 -8 270 -1 267 10 374 69 665 43
213 40 245 -26 245 -25 0 -35 4 -31 13 2 7 10 39 17 70 6 32 22 82 35 110 33
76 46 151 44 254 -1 68 2 99 13 115 31 48 76 145 92 200 64 222 60 584 -9 945
-14 71 -25 131 -25 134 0 4 29 -4 65 -17 81 -29 173 -45 222 -37 73 12 190
158 254 318 13 33 51 94 85 137 127 156 184 297 184 448 0 69 -5 104 -24 154
-22 63 -93 168 -124 185 -12 7 -12 17 -3 60 23 108 8 202 -48 308 l-32 59 16
59 c31 119 14 264 -43 369 -41 76 -124 160 -195 196 -45 24 -72 46 -95 80 -37
53 -77 75 -121 67 -23 -5 -34 0 -62 29 -31 33 -38 35 -82 31 -45 -4 -48 -2
-68 30 -15 24 -45 46 -103 76 -73 37 -89 41 -159 43 -43 1 -81 5 -84 8 -4 3
-10 86 -14 183 -7 146 -5 209 11 358 39 368 36 521 -13 609 -28 52 -91 90
-187 115 -93 23 -249 33 -350 20z m226 -110 c101 -14 177 -43 208 -79 20 -24
25 -45 31 -115 15 -183 -34 -585 -83 -682 -31 -59 -83 -100 -138 -109 -25 -3
-101 -4 -168 -2 -158 6 -176 15 -222 111 -32 70 -36 85 -75 342 -18 124 -1
408 28 453 43 68 240 106 419 81z m-400 -950 c86 -86 96 -88 302 -89 172 0
176 1 268 76 36 30 60 42 66 36 5 -5 10 -76 11 -157 l2 -147 -73 -39 c-53 -28
-86 -39 -117 -39 -53 0 -237 47 -357 90 -83 30 -89 35 -143 101 l-56 70 7 85
c4 46 9 84 13 84 3 0 38 -32 77 -71z m-223 -168 c37 -10 85 -30 108 -45 22
-15 49 -29 59 -31 10 -2 29 -9 41 -16 57 -30 405 -119 468 -119 52 0 101 18
207 79 81 46 96 51 150 51 81 0 145 -32 212 -104 28 -32 52 -62 52 -68 0 -7
14 -8 36 -5 44 7 70 -4 105 -45 25 -29 27 -30 63 -18 47 15 80 7 94 -24 10
-22 8 -24 -26 -30 -89 -14 -132 -8 -181 28 -48 35 -148 88 -190 101 -14 4 -45
18 -69 31 -57 30 -122 31 -228 3 -222 -59 -235 -59 -441 -3 -142 38 -280 53
-334 36 -48 -16 -221 -22 -303 -10 -39 5 -110 25 -159 44 -51 20 -116 38 -153
41 -35 3 -64 9 -64 13 0 4 24 19 53 33 84 43 137 34 230 -37 27 -21 51 -36 53
-34 2 2 -8 21 -22 42 l-25 37 27 22 c66 53 122 60 237 28z m-326 -188 c106
-36 110 -36 273 -37 98 -1 200 5 253 13 l87 14 168 -41 c203 -51 251 -52 392
-12 125 36 226 47 256 28 12 -7 59 -33 105 -57 118 -61 211 -125 254 -173 99
-109 160 -370 104 -442 -29 -37 -64 -34 -170 14 -50 22 -129 52 -177 67 -84
26 -96 27 -312 28 -243 0 -281 -5 -525 -62 -254 -59 -311 -47 -543 117 -63 44
-118 80 -122 80 -14 0 -70 -105 -70 -131 0 -94 -83 -288 -160 -372 -101 -111
-203 -134 -313 -73 -34 19 -79 42 -100 51 -35 14 -30 8 51 -72 109 -107 148
-166 224 -343 70 -161 143 -285 233 -397 l66 -83 49 0 c64 0 167 -33 216 -69
82 -61 154 -138 154 -167 0 -41 -72 -127 -173 -205 -71 -54 -97 -69 -124 -69
-49 0 -102 25 -113 54 -5 13 -34 44 -65 67 -75 56 -107 112 -106 184 0 52 -1
56 -42 88 -63 51 -159 111 -392 241 -234 132 -329 195 -403 265 -66 64 -97
114 -132 220 -39 117 -40 182 -2 238 15 22 46 69 70 104 28 42 53 97 73 163
73 240 85 262 163 301 86 43 166 25 245 -54 23 -23 41 -35 41 -28 0 29 -62
108 -115 147 -54 40 -55 42 -49 78 30 173 188 306 413 346 134 25 197 21 318
-21z m-779 -150 c-32 -63 -51 -115 -60 -164 -11 -54 -14 -59 -37 -59 -42 0
-123 -44 -162 -87 -46 -51 -80 -124 -114 -243 -47 -164 -29 -147 -280 -259
-568 -253 -1216 -575 -1587 -787 -366 -210 -762 -501 -990 -728 -59 -58 -88
-81 -88 -69 0 10 11 63 24 118 104 427 357 806 746 1116 122 98 222 167 390
270 570 348 1171 608 1930 834 227 68 234 69 228 58z m2789 -126 c69 -36 136
-107 176 -187 30 -61 32 -71 31 -170 0 -78 -6 -121 -22 -169 l-21 -63 34 -52
c50 -75 75 -156 75 -243 0 -104 -15 -133 -93 -183 -64 -40 -124 -103 -81 -85
99 41 122 47 172 43 94 -8 142 -83 142 -224 0 -136 -85 -334 -192 -444 -13
-14 -32 -52 -42 -85 -28 -91 -73 -170 -142 -243 l-62 -67 -74 0 c-67 0 -83 4
-151 39 -42 21 -81 44 -87 51 -14 17 -40 161 -40 223 0 102 69 156 213 166 86
6 157 26 157 44 0 24 -26 82 -56 123 -54 74 -74 127 -74 196 0 86 11 110 62
132 l43 18 -45 8 c-60 10 -133 42 -159 69 l-21 23 55 114 c64 133 80 198 71
290 -6 63 -5 67 17 73 12 3 41 17 64 32 35 23 44 36 54 77 34 144 -26 329
-156 474 l-49 56 74 -5 c54 -4 89 -12 127 -31z m-1891 -323 c89 -84 239 -160
359 -184 52 -10 73 -9 160 10 477 101 752 98 1034 -10 l80 -31 7 -45 c14 -96
-9 -199 -78 -349 -96 -207 -126 -327 -135 -542 l-6 -131 -26 -6 c-14 -2 -112
-10 -217 -17 -253 -16 -369 -5 -535 51 -116 38 -312 131 -362 170 -26 20 -39
72 -57 223 l-6 58 45 31 c51 34 91 68 91 77 0 3 -42 6 -92 6 -87 0 -97 2 -158
35 -45 24 -100 70 -178 147 l-112 112 30 47 c51 81 72 150 77 254 3 75 16 140
28 140 1 0 23 -21 51 -46z m-264 -596 c71 -70 179 -155 270 -212 l46 -30 22
-115 c12 -64 25 -136 30 -161 5 -26 5 -51 -1 -61 -5 -10 -9 -34 -9 -55 0 -33
-2 -36 -22 -30 -13 4 -58 12 -101 18 -88 14 -95 19 -194 168 -69 103 -86 138
-137 288 -24 71 -53 147 -64 167 l-19 38 51 28 c28 15 52 28 53 28 1 1 35 -31
75 -71z m-1125 -188 c84 -175 184 -253 546 -429 338 -164 457 -239 457 -287 0
-63 23 -114 79 -175 42 -47 56 -70 56 -93 0 -37 43 -69 121 -92 l52 -15 -23
-68 c-13 -38 -27 -77 -33 -87 -14 -27 -246 -236 -380 -343 -249 -200 -553
-378 -772 -453 -92 -31 -101 -32 -275 -34 -198 -2 -298 6 -416 36 -323 80
-513 258 -609 567 -31 100 -28 116 53 275 106 210 234 393 448 643 146 169
624 646 647 645 4 -1 26 -41 49 -90z m3062 -130 c9 0 11 -7 7 -22 -4 -13 -10
-48 -13 -79 -7 -69 15 -123 79 -194 60 -66 73 -91 52 -99 -9 -3 -64 -6 -123
-6 -79 0 -112 -4 -127 -15 -10 -8 -23 -15 -27 -15 -21 0 13 306 44 407 l20 63
37 -20 c20 -11 43 -20 51 -20z m-1214 -368 c165 -48 261 -68 367 -77 103 -10
327 -10 463 0 61 4 111 7 113 6 1 0 5 -40 7 -88 5 -83 17 -151 79 -434 14 -64
37 -196 52 -295 23 -153 28 -212 28 -409 1 -191 -2 -244 -18 -310 -22 -94 -62
-189 -109 -254 -33 -45 -34 -48 -26 -111 12 -94 -6 -216 -52 -356 l-40 -123
-67 -8 c-147 -17 -544 -6 -582 17 -22 13 32 111 91 164 50 45 98 66 153 66
l28 0 -6 88 c-10 118 -37 220 -103 386 l-56 140 26 75 c37 105 62 220 87 391
26 185 57 365 70 409 15 52 4 49 -24 -6 -35 -71 -59 -146 -131 -414 -68 -252
-94 -327 -145 -429 -70 -139 -177 -267 -303 -364 -69 -52 -75 -60 -81 -101 -8
-62 -36 -113 -99 -182 -80 -86 -131 -193 -66 -139 17 14 35 26 40 26 12 0 2
-153 -18 -255 -21 -112 -64 -235 -144 -412 -37 -84 -75 -177 -84 -205 -9 -31
-21 -131 -27 -235 l-12 -183 -34 -6 c-67 -13 -288 21 -325 49 -14 10 -15 23
-7 85 5 39 16 196 25 347 8 150 22 325 30 387 19 132 76 375 105 443 28 65 93
163 189 283 l82 103 -25 102 c-39 158 -49 263 -43 437 8 206 37 384 98 615 55
204 51 196 132 248 40 25 117 91 171 146 l99 99 -6 43 c-5 35 -16 53 -67 104
-54 55 -61 65 -51 83 6 11 11 40 11 65 0 54 5 60 39 42 15 -7 90 -31 166 -53z
m155 -2524 c59 -20 84 -22 290 -22 211 1 292 8 469 40 l34 7 -7 -34 c-5 -19
-12 -52 -17 -74 -9 -35 -23 -123 -61 -380 -11 -78 -16 -656 -5 -695 6 -26 72
-70 242 -160 44 -24 111 -62 148 -87 98 -63 188 -105 302 -143 114 -37 171
-64 178 -82 15 -44 -56 -73 -215 -87 -112 -11 -158 -8 -408 29 -151 22 -339
35 -623 45 -183 6 -219 14 -256 61 -33 42 -25 112 27 242 55 137 63 191 51
354 -16 215 -30 274 -129 523 -35 88 -49 134 -80 270 -20 88 -27 215 -12 215
4 0 36 -10 72 -22z m-820 -1166 c20 -8 30 -25 49 -91 26 -89 22 -113 -17 -92
-11 6 -23 11 -25 11 -10 0 34 -177 69 -274 47 -133 50 -151 29 -182 -29 -45
-77 -58 -210 -57 -213 3 -317 32 -386 110 -25 29 -29 42 -29 91 0 47 6 67 28
103 32 49 97 110 185 172 31 22 56 41 55 43 -2 1 -25 -3 -51 -9 -29 -6 -51 -7
-57 -1 -18 18 12 94 58 146 l46 51 116 -6 c63 -2 126 -9 140 -15z"/>
</g>
</svg>
