<?xml version="1.0" standalone="no"?>
<!DOCTYPE svg PUBLIC "-//W3C//DTD SVG 20010904//EN"
 "http://www.w3.org/TR/2001/REC-SVG-20010904/DTD/svg10.dtd">
<svg version="1.0" xmlns="http://www.w3.org/2000/svg"
 width="1024.000000pt" height="1024.000000pt" viewBox="0 0 1024.000000 1024.000000"
 preserveAspectRatio="xMidYMid meet">

<g transform="translate(0.000000,1024.000000) scale(0.100000,-0.100000)"
fill="#000000" stroke="none">
<path d="M8455 8719 c-345 -50 -650 -270 -807 -584 -20 -38 -88 -230 -151
-425 -460 -1411 -1556 -4789 -1571 -4839 -9 -30 -21 -102 -28 -161 -54 -484
250 -958 716 -1116 221 -76 491 -73 709 6 258 95 466 280 590 526 22 44 360
1069 882 2675 677 2082 849 2624 862 2704 58 379 -103 775 -409 1005 -225 170
-522 248 -793 209z m289 -519 c409 -104 543 -615 237 -902 -114 -107 -217
-149 -371 -149 -146 0 -269 52 -374 156 -211 209 -210 543 3 756 137 137 319
187 505 139z m-1632 -5079 c214 -59 373 -257 385 -481 27 -491 -561 -758 -908
-411 -73 73 -120 155 -145 254 -21 82 -15 220 15 302 57 159 203 296 361 339
79 21 211 20 292 -3z"/>
<path d="M1482 3649 c-219 -28 -429 -129 -592 -285 -222 -212 -332 -469 -331
-774 0 -144 17 -244 65 -371 122 -326 379 -559 731 -661 l80 -23 2655 -2 2655
-2 -83 25 c-104 30 -188 65 -255 106 -28 18 -661 474 -1405 1015 l-1353 983
-1052 -1 c-579 -1 -1080 -5 -1115 -10z m330 -559 c214 -80 348 -275 348 -505
0 -149 -47 -262 -155 -371 -135 -136 -315 -191 -492 -149 -292 69 -475 357
-408 643 40 169 169 317 333 381 107 42 264 43 374 1z"/>
</g>
</svg>
