<?xml version="1.0" standalone="no"?>
<!DOCTYPE svg PUBLIC "-//W3C//DTD SVG 20010904//EN"
 "http://www.w3.org/TR/2001/REC-SVG-20010904/DTD/svg10.dtd">
<svg version="1.0" xmlns="http://www.w3.org/2000/svg"
 width="800.000000pt" height="800.000000pt" viewBox="0 0 800.000000 800.000000"
 preserveAspectRatio="xMidYMid meet">

<g transform="translate(0.000000,800.000000) scale(0.100000,-0.100000)"
fill="#000000" stroke="none">
<path d="M3735 7879 c-822 -55 -1633 -385 -2255 -918 -111 -95 -320 -302 -419
-416 -893 -1028 -1180 -2456 -755 -3756 134 -411 330 -785 593 -1134 204 -271
483 -549 757 -757 726 -549 1644 -831 2542 -780 965 56 1822 428 2500 1087
375 364 644 746 850 1205 313 698 411 1459 287 2228 -98 606 -358 1210 -733
1706 -279 368 -655 712 -1042 954 -692 432 -1508 636 -2325 581z m-2324 -3185
c186 -55 293 -210 315 -453 l7 -81 -422 0 -421 0 5 -42 c18 -134 34 -182 83
-256 104 -157 351 -198 515 -85 46 32 109 125 127 187 12 46 13 46 55 46 l43
0 -13 -50 c-42 -158 -157 -275 -306 -309 -68 -16 -208 -13 -270 5 -236 70
-360 334 -304 647 35 198 169 358 332 396 63 15 195 12 254 -5z m1980 -3 c146
-46 248 -160 295 -332 24 -87 25 -289 1 -377 -65 -240 -220 -351 -474 -340
-93 4 -109 8 -177 42 -74 36 -113 73 -149 141 -15 28 -16 13 -17 -252 l0 -283
-40 0 -40 0 0 700 0 700 40 0 40 0 0 -112 0 -113 23 44 c43 86 128 154 232
187 62 20 193 17 266 -5z m1570 3 c186 -55 293 -210 315 -453 l7 -81 -422 0
-421 0 5 -42 c18 -134 34 -182 83 -256 104 -157 351 -198 515 -85 46 32 109
125 127 187 12 46 13 46 55 46 l43 0 -13 -50 c-42 -158 -157 -275 -306 -309
-68 -16 -208 -13 -270 5 -236 70 -360 334 -304 647 35 198 169 358 332 396 63
15 195 12 254 -5z m1051 -13 c106 -41 188 -155 188 -261 0 -40 0 -40 -39 -40
-38 0 -38 0 -44 45 -13 93 -65 156 -158 191 -60 23 -227 23 -288 0 -104 -38
-146 -95 -139 -188 4 -49 9 -63 37 -92 46 -48 100 -68 291 -111 240 -54 297
-83 344 -177 33 -65 36 -170 7 -233 -19 -43 -81 -104 -130 -129 -85 -45 -284
-60 -396 -31 -152 40 -255 151 -272 295 l-6 50 40 0 c39 0 41 -2 47 -35 19
-98 82 -177 179 -221 53 -24 75 -28 152 -28 206 -1 325 76 325 210 0 125 -83
180 -353 233 -257 51 -347 125 -347 285 0 112 46 183 148 228 67 30 118 37
242 34 89 -2 128 -8 172 -25z m960 0 c106 -41 188 -155 188 -261 0 -40 0 -40
-39 -40 -38 0 -38 0 -44 45 -13 93 -65 156 -158 191 -60 23 -227 23 -288 0
-104 -38 -146 -95 -139 -188 4 -49 9 -63 37 -92 46 -48 100 -68 291 -111 240
-54 297 -83 344 -177 33 -65 36 -170 7 -233 -19 -43 -81 -104 -130 -129 -85
-45 -284 -60 -396 -31 -152 40 -255 151 -272 295 l-6 50 40 0 c39 0 41 -2 47
-35 19 -98 82 -177 179 -221 53 -24 75 -28 152 -28 206 -1 325 76 325 210 0
125 -83 180 -353 233 -257 51 -347 125 -347 285 0 112 46 183 148 228 67 30
118 37 242 34 89 -2 128 -8 172 -25z m-4923 -196 c84 -113 157 -207 161 -210
4 -3 79 90 166 205 l159 210 53 0 52 0 -116 -152 c-64 -84 -148 -195 -187
-246 l-69 -92 177 -238 c98 -130 189 -252 203 -269 l24 -33 -55 0 -55 0 -158
218 c-87 119 -165 227 -174 239 -16 21 -20 17 -194 -218 l-177 -239 -50 0
c-27 0 -49 2 -49 4 0 1 90 123 199 270 l199 268 -184 239 c-101 131 -184 241
-184 244 0 3 24 5 53 5 l52 0 154 -205z m1911 93 c0 -99 2 -110 13 -88 61 116
203 200 338 200 l49 0 0 -39 0 -38 -70 -5 c-94 -7 -165 -43 -230 -116 -91
-102 -94 -116 -98 -499 l-3 -333 -40 0 -39 0 0 515 0 515 40 0 40 0 0 -112z"/>
<path d="M1180 4625 c-143 -40 -254 -177 -276 -344 l-7 -51 372 0 371 0 0 25
c0 44 -22 129 -47 182 -71 152 -249 233 -413 188z"/>
<path d="M3164 4630 c-219 -46 -335 -294 -280 -600 26 -144 91 -236 206 -289
47 -22 69 -25 150 -25 83 0 103 3 155 27 150 69 228 213 229 422 1 212 -75
365 -217 435 -69 33 -170 46 -243 30z"/>
<path d="M4730 4625 c-143 -40 -254 -177 -276 -344 l-7 -51 372 0 371 0 0 25
c0 44 -22 129 -47 182 -71 152 -249 233 -413 188z"/>
</g>
</svg>
