<?xml version="1.0" standalone="no"?>
<!DOCTYPE svg PUBLIC "-//W3C//DTD SVG 20010904//EN"
 "http://www.w3.org/TR/2001/REC-SVG-20010904/DTD/svg10.dtd">
<svg version="1.0" xmlns="http://www.w3.org/2000/svg"
 width="623.000000pt" height="800.000000pt" viewBox="0 0 623.000000 800.000000"
 preserveAspectRatio="xMidYMid meet">

<g transform="translate(0.000000,800.000000) scale(0.100000,-0.100000)"
fill="#000000" stroke="none">
<path d="M1095 7993 c-204 -18 -437 -108 -604 -233 -241 -180 -402 -435 -467
-740 -22 -107 -25 -379 -5 -490 95 -525 503 -916 1036 -993 l90 -13 -92 -12
c-279 -37 -524 -160 -715 -360 -162 -170 -262 -362 -314 -602 -27 -126 -25
-410 3 -540 105 -479 445 -820 933 -936 69 -17 161 -18 1158 -21 l1082 -4 0
458 c0 252 3 1366 6 2476 l6 2017 -1038 -2 c-572 -1 -1057 -3 -1079 -5z"/>
</g>
</svg>
