<?xml version="1.0" standalone="no"?>
<!DOCTYPE svg PUBLIC "-//W3C//DTD SVG 20010904//EN"
 "http://www.w3.org/TR/2001/REC-SVG-20010904/DTD/svg10.dtd">
<svg version="1.0" xmlns="http://www.w3.org/2000/svg"
 width="2560.000000pt" height="2040.000000pt" viewBox="0 0 2560.000000 2040.000000"
 preserveAspectRatio="xMidYMid meet">

<g transform="translate(0.000000,2040.000000) scale(0.100000,-0.100000)"
fill="#000000" stroke="none">
<path d="M5102 20389 c-1123 -100 -2046 -982 -2241 -2139 -34 -199 -40 -362
-29 -730 15 -505 2 -1227 -32 -1740 -110 -1661 -455 -2962 -1005 -3800 -221
-336 -502 -619 -795 -800 -261 -162 -565 -272 -879 -316 l-121 -17 0 -647 0
-647 121 -17 c502 -71 926 -284 1290 -646 265 -263 455 -540 653 -952 393
-816 645 -1951 736 -3318 34 -513 47 -1225 32 -1735 -6 -207 -7 -393 -1 -475
46 -704 374 -1362 904 -1818 277 -238 639 -429 974 -512 154 -39 261 -57 417
-70 93 -8 2268 -10 7759 -8 7268 3 7635 4 7740 21 277 45 481 109 720 227 509
249 902 647 1161 1175 119 243 187 451 233 715 38 215 43 341 31 799 -40 1504
102 2933 395 3984 246 883 581 1527 1024 1967 362 359 782 571 1282 644 59 9
112 16 118 16 8 0 11 176 11 650 0 474 -3 650 -11 650 -6 0 -59 7 -118 16
-499 73 -922 286 -1282 644 -444 443 -778 1084 -1024 1967 -293 1050 -435
2485 -395 3985 11 449 6 589 -31 798 -46 264 -114 472 -233 715 -259 528 -653
927 -1161 1175 -236 116 -428 177 -695 223 l-125 21 -7665 2 c-4216 1 -7707
-2 -7758 -7z m8609 -4749 c896 -70 1624 -359 2142 -850 425 -404 681 -926 752
-1535 20 -171 19 -469 -1 -627 -102 -797 -610 -1516 -1327 -1878 -184 -92
-391 -165 -569 -200 -32 -6 -58 -15 -58 -19 0 -4 62 -18 138 -30 816 -129
1481 -515 1904 -1106 242 -339 388 -711 455 -1160 25 -167 24 -633 0 -820 -76
-568 -266 -1031 -590 -1435 -111 -139 -335 -354 -479 -463 -431 -324 -972
-550 -1594 -666 -155 -29 -369 -58 -604 -83 -85 -8 -753 -12 -2562 -15 l-2448
-4 0 5451 0 5450 2353 0 c1535 0 2400 -4 2488 -10z"/>
<path d="M10650 12630 l0 -1591 1153 4 c1006 3 1168 6 1277 20 393 53 645 121
899 243 306 147 532 347 676 599 238 418 254 1054 39 1489 -65 130 -137 229
-244 336 -244 245 -581 392 -1069 467 -93 15 -266 17 -1418 20 l-1313 4 0
-1591z"/>
<path d="M10650 7940 l0 -1761 1368 4 c1203 3 1383 6 1497 21 571 73 937 200
1244 431 304 229 489 540 567 956 22 114 30 478 14 607 -99 805 -639 1280
-1642 1442 -326 53 -341 53 -1740 57 l-1308 4 0 -1761z"/>
</g>
</svg>
