<?xml version="1.0" standalone="no"?>
<!DOCTYPE svg PUBLIC "-//W3C//DTD SVG 20010904//EN"
 "http://www.w3.org/TR/2001/REC-SVG-20010904/DTD/svg10.dtd">
<svg version="1.0" xmlns="http://www.w3.org/2000/svg"
 width="512.000000pt" height="512.000000pt" viewBox="0 0 512.000000 512.000000"
 preserveAspectRatio="xMidYMid meet">

<g transform="translate(0.000000,512.000000) scale(0.100000,-0.100000)"
fill="#000000" stroke="none">
<path d="M3019 5108 c0 -2 -2 -73 -3 -158 -3 -183 -22 -266 -90 -406 -58 -118
-137 -193 -386 -372 -222 -160 -362 -274 -437 -356 -122 -134 -220 -301 -249
-424 -65 -274 120 -644 482 -967 77 -68 103 -85 123 -83 39 5 33 43 -34 193
-117 263 -195 550 -198 724 -2 73 2 94 22 135 36 73 125 162 351 350 233 193
416 371 480 465 101 151 147 305 137 467 -11 189 -109 434 -173 434 -13 0 -24
-1 -25 -2z"/>
<path d="M3415 4021 c-432 -182 -759 -420 -861 -627 -39 -77 -39 -79 -38 -189
3 -197 50 -323 195 -515 49 -65 93 -130 99 -145 21 -56 3 -168 -47 -293 -18
-47 -23 -70 -16 -81 19 -31 47 -22 116 34 87 72 181 190 226 284 30 64 36 88
39 161 7 134 -24 220 -147 410 -102 158 -112 223 -52 344 53 108 216 273 479
484 98 79 132 113 132 129 0 43 -29 44 -125 4z"/>
</g>
</svg>
