<?xml version="1.0" standalone="no"?>
<!DOCTYPE svg PUBLIC "-//W3C//DTD SVG 20010904//EN"
 "http://www.w3.org/TR/2001/REC-SVG-20010904/DTD/svg10.dtd">
<svg version="1.0" xmlns="http://www.w3.org/2000/svg"
 width="512.000000pt" height="512.000000pt" viewBox="0 0 512.000000 512.000000"
 preserveAspectRatio="xMidYMid meet">

<g transform="translate(0.000000,512.000000) scale(0.100000,-0.100000)"
fill="#000000" stroke="none">
<path d="M444 5111 c-74 -18 -114 -73 -114 -156 0 -31 74 -1006 165 -2168 178
-2274 166 -2155 226 -2199 33 -24 1795 -581 1839 -581 44 0 1806 557 1839 581
60 44 48 -75 226 2199 91 1162 165 2137 165 2168 0 67 -17 101 -68 135 l-36
25 -2105 2 c-1158 0 -2120 -2 -2137 -6z m3546 -943 c0 -13 -9 -131 -20 -263
-11 -132 -20 -248 -20 -257 0 -17 -60 -18 -1083 -20 l-1083 -3 33 -295 c17
-162 32 -296 33 -297 0 -2 461 -3 1025 -3 813 0 1025 -3 1025 -12 0 -56 -133
-1704 -138 -1709 -10 -9 -1184 -379 -1202 -379 -18 0 -1192 370 -1202 379 -3
3 -20 188 -37 411 -17 223 -33 424 -37 448 l-5 42 320 0 321 0 0 -219 c0 -201
2 -220 18 -225 112 -33 623 -166 639 -166 19 0 642 165 648 172 2 2 13 131 24
288 11 157 23 313 27 348 l6 62 -1011 0 c-802 0 -1011 3 -1011 13 0 6 -29 386
-65 842 -36 457 -65 838 -65 848 0 16 75 17 1430 17 l1430 0 0 -22z"/>
</g>
</svg>
