<?xml version="1.0" standalone="no"?>
<!DOCTYPE svg PUBLIC "-//W3C//DTD SVG 20010904//EN"
 "http://www.w3.org/TR/2001/REC-SVG-20010904/DTD/svg10.dtd">
<svg version="1.0" xmlns="http://www.w3.org/2000/svg"
 width="715.000000pt" height="797.000000pt" viewBox="0 0 715.000000 797.000000"
 preserveAspectRatio="xMidYMid meet">

<g transform="translate(0.000000,797.000000) scale(0.100000,-0.100000)"
fill="#000000" stroke="none">
<path d="M60 7943 c1 -16 144 -1628 318 -3583 l318 -3554 34 -13 c19 -7 668
-188 1441 -402 l1406 -390 1437 399 c791 219 1441 401 1444 404 5 6 641 7082
642 7144 l0 22 -3520 0 -3520 0 0 -27z m5730 -1420 c0 -6 -46 -519 -271 -3033
-71 -800 -133 -1457 -137 -1461 -9 -8 -1783 -499 -1803 -499 -27 0 -1794 493
-1805 504 -6 6 -35 288 -68 666 -31 360 -59 670 -62 688 l-5 32 444 0 444 0 6
-37 c3 -21 18 -181 33 -355 l27 -316 76 -20 c42 -11 263 -70 492 -132 l416
-112 359 97 c435 117 618 167 622 170 2 2 102 1099 102 1128 0 16 -80 17
-1530 17 l-1530 0 0 28 c-1 15 -18 212 -38 437 l-38 410 1608 3 c884 1 1608 6
1608 10 0 16 69 796 75 844 l6 48 -1688 2 -1688 3 -37 395 c-20 217 -37 416
-37 443 l-1 47 2210 0 c1216 0 2210 -3 2210 -7z"/>
</g>
</svg>
