<?xml version="1.0" standalone="no"?>
<!DOCTYPE svg PUBLIC "-//W3C//DTD SVG 20010904//EN"
 "http://www.w3.org/TR/2001/REC-SVG-20010904/DTD/svg10.dtd">
<svg version="1.0" xmlns="http://www.w3.org/2000/svg"
 width="1052.000000pt" height="1052.000000pt" viewBox="0 0 1052.000000 1052.000000"
 preserveAspectRatio="xMidYMid meet">

<g transform="translate(0.000000,1052.000000) scale(0.100000,-0.100000)"
fill="#000000" stroke="none">
<path d="M7834 5740 c-376 -31 -690 -167 -925 -400 -243 -241 -359 -535 -359
-908 0 -409 125 -728 385 -986 201 -199 445 -343 935 -551 540 -230 704 -334
780 -498 56 -120 57 -274 3 -387 -36 -75 -131 -167 -220 -213 -107 -56 -204
-78 -368 -84 -407 -15 -705 143 -952 505 -31 45 -60 82 -64 82 -10 0 -770
-439 -786 -454 -10 -9 -2 -30 37 -94 304 -512 779 -812 1421 -898 147 -20 478
-22 614 -5 311 40 580 134 796 277 109 72 292 260 358 367 70 114 126 253 159
391 24 101 26 130 26 326 1 240 -12 335 -65 494 -62 187 -159 343 -303 486
-213 214 -484 375 -1027 608 -412 177 -550 253 -641 350 -87 93 -124 202 -116
338 7 108 37 181 103 252 95 103 205 146 375 145 193 0 318 -50 445 -178 45
-44 103 -115 130 -158 28 -44 54 -76 61 -73 24 9 749 477 752 485 7 19 -163
254 -247 343 -278 293 -608 428 -1086 441 -71 3 -171 1 -221 -3z"/>
<path d="M4727 3928 c-3 -1654 -4 -1768 -21 -1838 -50 -210 -155 -321 -338
-359 -31 -7 -104 -12 -161 -13 -257 -1 -411 107 -590 414 -29 48 -55 87 -58
86 -4 -2 -185 -111 -402 -242 l-395 -240 33 -66 c19 -37 65 -114 104 -171 318
-474 849 -706 1509 -658 272 19 536 100 727 221 283 179 468 474 547 871 l23
112 3 1823 2 1822 -490 0 -489 0 -4 -1762z"/>
</g>
</svg>
