<?xml version="1.0" standalone="no"?>
<!DOCTYPE svg PUBLIC "-//W3C//DTD SVG 20010904//EN"
 "http://www.w3.org/TR/2001/REC-SVG-20010904/DTD/svg10.dtd">
<svg version="1.0" xmlns="http://www.w3.org/2000/svg"
 width="1822.000000pt" height="2048.000000pt" viewBox="0 0 1822.000000 2048.000000"
 preserveAspectRatio="xMidYMid meet">

<g transform="translate(0.000000,2048.000000) scale(0.100000,-0.100000)"
fill="#000000" stroke="none">
<path d="M16199 14321 c-3256 -1882 -3623 -2094 -5744 -3317 -3325 -1918
-3965 -2289 -3965 -2299 0 -6 32 -60 70 -119 416 -638 1038 -1092 1770 -1289
246 -67 490 -98 770 -98 495 -1 921 99 1359 317 490 244 890 597 1184 1044 42
63 82 123 89 134 13 17 49 -2 583 -311 314 -182 903 -522 1310 -758 407 -235
742 -429 744 -431 5 -4 -102 -179 -202 -329 -486 -730 -1159 -1373 -1912
-1827 -805 -486 -1659 -766 -2615 -860 -212 -21 -911 -17 -1120 5 -1110 120
-2102 498 -2980 1137 -646 469 -1239 1115 -1630 1775 -29 50 -55 92 -56 94 -5
6 -3614 -2081 -3614 -2091 0 -18 91 -152 167 -246 88 -108 199 -213 298 -281
137 -94 7669 -4434 7761 -4473 50 -21 138 -50 195 -65 l104 -28 345 0 345 0
115 31 c172 48 261 91 655 319 198 114 576 333 840 485 462 267 1604 926 1810
1045 55 32 334 193 620 358 286 165 737 425 1002 579 266 153 700 403 965 557
266 153 762 439 1103 636 341 197 679 392 750 433 235 136 351 228 479 381
224 268 377 605 415 911 8 58 11 1464 11 4500 0 3820 -2 4428 -15 4510 -26
169 -78 331 -159 491 -28 57 -55 104 -61 105 -5 1 -809 -460 -1786 -1025z
m-1689 -3416 l0 -335 338 -2 337 -3 0 -335 0 -335 -337 -3 -338 -2 0 -335 0
-335 -340 0 -340 0 0 335 0 335 -335 0 -335 0 0 340 0 340 335 0 335 0 0 335
0 335 340 0 340 0 0 -335z m2530 0 l0 -335 338 -2 337 -3 3 -337 2 -338 -340
0 -340 0 0 -335 0 -335 -340 0 -340 0 0 335 0 335 -335 0 -335 0 0 340 0 340
335 0 335 0 0 335 0 335 340 0 340 0 0 -335z"/>
</g>
</svg>
