<?xml version="1.0" standalone="no"?>
<!DOCTYPE svg PUBLIC "-//W3C//DTD SVG 20010904//EN"
 "http://www.w3.org/TR/2001/REC-SVG-20010904/DTD/svg10.dtd">
<svg version="1.0" xmlns="http://www.w3.org/2000/svg"
 width="1280.000000pt" height="766.000000pt" viewBox="0 0 1280.000000 766.000000"
 preserveAspectRatio="xMidYMid meet">

<g transform="translate(0.000000,766.000000) scale(0.100000,-0.100000)"
fill="#000000" stroke="none">
<path d="M10617 7599 c-591 -68 -1044 -433 -1127 -906 -16 -93 -13 -288 5
-379 65 -311 274 -574 580 -727 120 -60 188 -84 570 -203 394 -123 512 -166
613 -221 187 -104 274 -271 244 -468 -17 -106 -53 -177 -131 -256 -152 -152
-403 -219 -781 -206 -307 11 -542 60 -838 176 -296 116 -322 103 -322 -165 0
-165 15 -223 74 -279 81 -78 257 -152 525 -219 308 -77 675 -105 941 -72 496
64 857 260 1065 580 100 153 151 306 163 489 31 460 -164 789 -589 992 -52 24
-200 79 -329 121 -129 41 -332 107 -450 145 -454 146 -619 270 -653 488 -30
197 60 374 237 463 178 90 500 118 826 71 187 -26 314 -62 496 -139 129 -55
190 -62 226 -26 22 21 23 31 26 198 3 162 2 178 -18 220 -41 84 -145 149 -343
213 -140 45 -320 84 -490 106 -125 16 -401 18 -520 4z"/>
<path d="M1915 7594 c-280 -29 -642 -125 -869 -233 -186 -88 -198 -107 -204
-321 -8 -303 13 -317 314 -205 402 150 673 204 974 192 534 -21 741 -195 800
-667 5 -46 10 -180 10 -296 l0 -211 -107 23 c-920 202 -1543 103 -1936 -305
-95 -100 -143 -169 -199 -287 -79 -168 -111 -373 -96 -614 27 -444 294 -796
706 -929 150 -49 209 -56 447 -56 172 0 239 4 310 18 311 63 565 199 799 428
67 66 122 119 123 119 1 0 31 -57 68 -127 97 -187 201 -320 280 -357 67 -32
106 -18 288 103 257 170 259 176 163 380 -77 164 -120 286 -136 391 -8 51 -15
358 -20 945 -6 729 -10 886 -23 967 -102 613 -406 915 -1027 1024 -69 12 -169
17 -360 19 -146 2 -283 1 -305 -1z m655 -2139 c124 -17 357 -62 373 -72 17
-10 0 -364 -23 -478 -29 -150 -88 -262 -193 -369 -139 -141 -268 -213 -472
-266 -207 -53 -429 -57 -573 -9 -132 44 -258 160 -303 279 -49 131 -62 306
-33 448 55 270 269 440 604 482 106 13 483 4 620 -15z"/>
<path d="M4063 7474 c-51 -51 -60 -18 496 -1843 282 -926 523 -1707 535 -1735
29 -65 72 -101 136 -115 66 -14 464 -14 529 0 65 14 99 41 126 103 12 28 170
669 351 1423 180 755 331 1370 335 1365 3 -4 153 -619 333 -1367 179 -748 331
-1377 338 -1398 17 -54 69 -111 116 -125 53 -16 506 -16 569 -1 64 17 105 61
136 150 15 41 179 565 366 1164 187 600 419 1344 516 1655 97 311 179 586 182
612 7 58 -1 92 -29 118 -21 19 -34 20 -278 20 -166 0 -269 -4 -291 -11 -46
-16 -76 -45 -105 -102 -15 -28 -170 -611 -390 -1465 -202 -779 -369 -1420
-373 -1424 -3 -4 -148 592 -320 1325 -173 733 -327 1383 -343 1446 -33 136
-61 185 -124 212 -41 18 -64 20 -306 17 -312 -4 -324 -7 -370 -99 -20 -39
-117 -439 -359 -1464 -182 -775 -333 -1411 -334 -1413 -5 -5 5 -42 -366 1418
-263 1038 -359 1401 -382 1450 -27 54 -39 69 -77 88 -43 21 -54 22 -318 22
l-273 0 -26 -26z"/>
</g>
</svg>
